<svg width="104" height="96" viewBox="0 0 104 96" fill="none" xmlns="http://www.w3.org/2000/svg">
<path fill-rule="evenodd" clip-rule="evenodd" d="M61.9887 20.8352C61.1797 21.0573 60.3449 21.2598 59.4842 21.4296V22.0566V23.9899V26.5437V29.0974V32.3435V38.6137V41.4222L61.9887 39.6913L64.4931 37.9605L66.9976 36.2362L69.502 34.512V31.6969V25.9297V23.1473V20.3258C68.719 20.7961 67.8842 21.2337 66.9976 21.6386C66.1951 22.0044 65.3603 22.3375 64.4931 22.6444V25.27C65.3538 24.9827 66.1886 24.6757 66.9976 24.3361V27.0205V33.4277L64.4867 35.152L61.9822 36.8763V28.5749V25.995V23.4151V22.0501V20.8352H61.9887ZM59.4842 13.8924C60.3838 13.7095 61.2186 13.507 61.9887 13.2719V12.1485V9.0069V6.19841V5.61711V3.15478C62.8882 3.4291 63.7295 3.74261 64.4931 4.08224C64.6096 4.12796 64.7132 4.18021 64.8232 4.23246C65.6386 4.61781 66.3698 5.04235 66.9976 5.49302C67.0105 5.49955 67.017 5.50608 67.0299 5.51914C68.596 6.66213 69.4956 8.0076 69.4956 9.4445C69.4956 10.8879 68.5831 12.2399 66.9911 13.396C66.2792 13.9054 65.438 14.3822 64.4867 14.8068C63.723 15.1464 62.8817 15.4534 61.9822 15.7342C61.1927 15.9759 60.3579 16.1849 59.4778 16.3743C58.6753 16.5376 57.8405 16.6813 56.9733 16.7923C55.3943 17.0013 53.7246 17.1058 51.9903 17.1058C50.2559 17.1058 48.5863 17.0013 47.0073 16.7923V19.3134C48.5993 19.5224 50.2689 19.6335 51.9903 19.6335C53.7052 19.6335 55.3749 19.5224 56.9733 19.3134C57.834 19.2024 58.6688 19.0587 59.4778 18.8954C60.3449 18.7125 61.1797 18.5101 61.9822 18.2684C62.8623 18.0137 63.6971 17.7198 64.4867 17.3997C65.3927 17.034 66.2275 16.629 66.9911 16.1849C67.9489 15.6297 68.7902 15.0288 69.4956 14.3822C71.094 12.9192 72 11.2406 72 9.4445C72 7.64837 71.094 5.96981 69.4956 4.50678C69.3532 4.37615 69.2043 4.24552 69.0555 4.12143C68.4536 3.61851 67.7741 3.15478 67.017 2.71718L66.9976 2.73024V2.70412C66.2339 2.25998 65.3927 1.85504 64.4931 1.48928C64.079 1.31946 63.6389 1.16271 63.1988 1.00596C62.8041 0.868796 62.4028 0.7447 61.9951 0.620604C61.1862 0.385474 60.3514 0.176469 59.4842 0.00012207V1.00596V2.52124V4.99663V6.19187V7.91616V10.7247V11.3582V12.7624V13.8924ZM39.5069 17.3932C38.6073 17.0274 37.7661 16.6225 37.0024 16.1784C36.0447 15.6232 35.2034 15.0223 34.498 14.3757C32.906 12.9192 32 11.2341 32 9.4445C32 7.64837 32.906 5.96981 34.5044 4.50678C34.6468 4.37615 34.7957 4.24552 34.951 4.12143C35.5528 3.61851 36.2323 3.15478 36.9895 2.71718L37.0089 2.73024V2.70412C37.7725 2.25998 38.6138 1.85504 39.5133 1.48928C39.934 1.31946 40.3676 1.16271 40.8076 1.00596C41.1959 0.868796 41.6036 0.7447 42.0113 0.620604C42.8138 0.385474 43.6486 0.176469 44.5158 0.00012207V1.00596V2.52124V4.99663V6.19187V7.91616V10.7247V11.0774V21.4296C43.6551 21.2598 42.8203 21.0638 42.0113 20.8352V11.8611V9.00037V6.19187V5.61711V3.15478C41.1118 3.4291 40.277 3.74261 39.5069 4.08224C39.3969 4.12796 39.2868 4.18021 39.1768 4.23246C38.3614 4.61781 37.6302 5.04235 37.0089 5.49302C36.996 5.49955 36.983 5.50608 36.9765 5.51914C35.404 6.66213 34.5044 8.0076 34.5044 9.4445C34.5044 10.8879 35.4169 12.2399 37.0089 13.396C37.7143 13.9054 38.5556 14.3822 39.5133 14.8068V17.3932H39.5069ZM44.5158 29.0974C43.668 28.9472 42.8332 28.7774 42.0113 28.5815V31.1156C42.0113 36.0599 42.0113 31.9386 42.0113 36.8829L39.5069 35.152L37.0024 33.4277V27.0205V24.3361C37.8114 24.6692 38.6462 24.9827 39.5069 25.27V22.6444C40.3158 22.9318 41.1506 23.1865 42.0113 23.4151C42.8267 23.6307 43.6615 23.8136 44.5158 23.9834C45.3312 24.1336 46.166 24.2707 47.0202 24.3752C48.6316 24.5712 50.2948 24.6757 52.0032 24.6757C53.7052 24.6757 55.3749 24.5712 56.9862 24.3752V26.9094C55.3684 27.0988 53.7052 27.2033 52.0032 27.2033C50.3012 27.2033 48.6381 27.0988 47.0202 26.9094C46.1725 26.8115 45.3376 26.6874 44.5158 26.5371C43.6615 26.3739 42.8267 26.204 42.0113 25.995C41.1571 25.7795 40.3223 25.5378 39.5069 25.27V22.6444C38.6397 22.3375 37.8049 22.0044 37.0024 21.6386C36.1223 21.2337 35.2875 20.7961 34.498 20.3258V23.1473V25.9297V31.7035V34.5185L37.0024 36.2428L39.5069 37.9671L42.0113 39.6979L44.5158 41.4287V38.6202C44.5158 33.1012 44.5158 36.6412 44.5158 31.1222V29.0974Z" fill="black"/>
<path d="M18.78 69.2001V89.0001H16.38V80.0901H5.64V89.0001H3.24V69.2001H5.64V77.8401H16.38V69.2001H18.78ZM39.6113 86.7501V89.0001H25.2713V69.2001H39.1613V71.4501H27.6713V77.8401H36.6113V80.0901H27.6713V86.7501H39.6113ZM58.1421 86.7501V89.0001H44.4021V69.2001H46.8021V86.7501H58.1421ZM76.0718 86.7501V89.0001H62.3318V69.2001H64.7318V86.7501H76.0718ZM82.6615 89.0001H80.2615V69.2001H82.6615V89.0001ZM100.178 89.0001L94.8084 80.8101L89.4384 89.0001H86.6484L93.5784 78.9201L87.2484 69.2001H90.0984L95.1384 76.9401L100.208 69.2001H102.758L96.3684 78.8001L102.968 89.0001H100.178Z" fill="black"/>
</svg>
