<svg width="538" height="554" viewBox="0 0 538 554" fill="none" xmlns="http://www.w3.org/2000/svg">
<path opacity="0.02" fill-rule="evenodd" clip-rule="evenodd" d="M403.348 278.616C392.468 281.585 381.239 284.293 369.663 286.564V294.948V320.801V354.951V389.101V432.51V516.356V553.913L403.348 530.768L437.033 507.622L470.717 484.564L504.402 461.507V423.863V346.741V309.534V271.803C493.87 278.092 482.642 283.944 470.717 289.359C459.924 294.25 448.696 298.704 437.033 302.809V337.92C448.609 334.077 459.837 329.972 470.717 325.43V361.327V447.008L436.945 470.066L403.261 493.124V382.114V347.615V313.115V294.861V278.616H403.348ZM369.663 185.773C381.762 183.327 392.99 180.62 403.348 177.476V162.453V120.442V82.886V75.1127V42.1854C415.446 45.8537 426.762 50.046 437.033 54.5877C438.599 55.1991 439.992 55.8978 441.472 56.5966C452.439 61.7496 462.274 67.4268 470.717 73.4533C470.891 73.5406 470.978 73.6279 471.153 73.8026C492.216 89.0872 504.315 107.079 504.315 126.294C504.315 145.596 492.042 163.676 470.63 179.135C461.056 185.948 449.741 192.324 436.945 198.001C426.675 202.542 415.359 206.647 403.261 210.403C392.642 213.635 381.413 216.429 369.576 218.962C358.783 221.146 347.554 223.067 335.891 224.552C314.653 227.347 292.196 228.744 268.869 228.744C245.542 228.744 223.086 227.347 201.848 224.552V258.266C223.26 261.06 245.717 262.545 268.869 262.545C291.935 262.545 314.392 261.06 335.891 258.266C347.467 256.781 358.696 254.859 369.576 252.676C381.239 250.23 392.468 247.523 403.261 244.291C415.098 240.885 426.327 236.954 436.945 232.675C449.131 227.784 460.36 222.369 470.63 216.429C483.512 209.006 494.828 200.97 504.315 192.324C525.814 172.759 538 150.313 538 126.294C538 102.276 525.814 79.8291 504.315 60.2649C502.4 58.5181 500.398 56.7712 498.396 55.1118C490.302 48.3866 481.162 42.1854 470.978 36.3336L470.717 36.5083V36.1589C460.447 30.2198 449.131 24.8047 437.033 19.9136C431.462 17.6428 425.543 15.5466 419.624 13.4504C414.315 11.6163 408.918 9.9568 403.435 8.29734C392.555 5.15308 381.326 2.35819 369.663 0V13.4504V33.7134V66.8154V82.7987V105.857V143.413V151.885V170.663V185.773ZM100.967 232.587C88.8688 227.696 77.5535 222.281 67.2826 216.342C54.4006 208.918 43.0853 200.883 33.5978 192.236C12.1857 172.759 0 150.225 0 126.294C0 102.276 12.1857 79.8291 33.6848 60.2649C35.5997 58.5181 37.6017 56.7712 39.6907 55.1118C47.7855 48.3866 56.9248 42.1854 67.1086 36.3336L67.3697 36.5083V36.1589C77.6405 30.2198 88.9558 24.8047 101.055 19.9136C106.712 17.6428 112.544 15.5466 118.463 13.4504C123.685 11.6163 129.169 9.9568 134.652 8.29734C145.445 5.15308 156.674 2.35819 168.337 0V13.4504V33.7134V66.8154V82.7987V105.857V143.413V148.129V286.564C156.761 284.293 145.532 281.673 134.652 278.616V158.61V120.355V82.7987V75.1127V42.1854C122.554 45.8537 111.325 50.046 100.967 54.5877C99.4878 55.1991 98.0081 55.8978 96.5284 56.5966C85.5612 61.7496 75.7256 67.4268 67.3697 73.4533C67.1956 73.5406 67.0215 73.6279 66.9345 73.8026C45.7835 89.0872 33.6848 107.079 33.6848 126.294C33.6848 145.596 45.9576 163.676 67.3697 179.135C76.8571 185.948 88.1725 192.324 101.055 198.001V232.587H100.967ZM168.337 389.101C156.935 387.093 145.707 384.822 134.652 382.202V416.09C134.652 482.206 134.652 427.094 134.652 493.211L100.967 470.066L67.2826 447.008V361.327V325.43C78.1628 329.885 89.391 334.077 100.967 337.92V302.809C111.848 306.652 123.076 310.058 134.652 313.115C145.619 315.997 156.848 318.443 168.337 320.714C179.304 322.723 190.533 324.557 202.022 325.954C223.695 328.575 246.065 329.972 269.044 329.972C291.935 329.972 314.392 328.575 336.065 325.954V359.842C314.305 362.375 291.935 363.773 269.044 363.773C246.152 363.773 223.782 362.375 202.022 359.842C190.62 358.532 179.391 356.873 168.337 354.864C156.848 352.68 145.619 350.41 134.652 347.615C123.163 344.732 111.935 341.501 100.967 337.92V302.809C89.304 298.704 78.0757 294.25 67.2826 289.359C55.4451 283.944 44.2168 278.092 33.5978 271.803V309.534V346.741V423.95V461.594L67.2826 484.652L100.967 507.71L134.652 530.855L168.337 554V516.444C168.337 442.641 168.337 489.98 168.337 416.177V389.101Z" fill="black"/>
</svg>
