<?xml version="1.0" encoding="utf-8"?>
<!-- Generator: Adobe Illustrator 26.0.3, SVG Export Plug-In . SVG Version: 6.00 Build 0)  -->
<svg version="1.1" id="Layer_1" xmlns="http://www.w3.org/2000/svg" xmlns:xlink="http://www.w3.org/1999/xlink" x="0px" y="0px"
	 viewBox="0 0 768 768" style="enable-background:new 0 0 768 768;" xml:space="preserve">
<style type="text/css">
	.st0{fill:#8E843E;}
	.st1{fill:#C1AC51;}
	.st2{fill:#D7CFA9;}
	.st3{fill:#918B71;}
	.st4{fill:#D6CFA9;}
	.st5{fill:#C0AB51;}
	.st6{fill:#3F391D;}
	.st7{fill:#343123;}
</style>
<g>
	<rect x="438.61" y="395.21" class="st0" width="0.97" height="3.17"/>
	<path class="st1" d="M168.68,497.16c-0.04-1.33-0.11-2.66-0.11-3.99c-0.01-101.21,0.01-202.43-0.09-303.64
		c0-3.24,1.03-4.88,3.78-6.47c87.32-50.75,174.59-101.6,261.87-152.44c1.25-0.73,2.5-1.48,3.74-2.22c1.34,1.3,0.71,2.96,0.71,4.45
		c0.04,48.78,0.03,97.55,0.03,146.33c0,6.66-0.03,13.31-0.05,19.97c-1.51,1-2.97,2.07-4.53,2.98
		c-12.27,7.13-24.58,14.21-36.85,21.34c-9.37,5.45-18.69,10.98-28.06,16.41c-1.17,0.68-2.31,1.69-3.87,1.41
		c0.01-7.63,0.04-15.25,0.04-22.88c-0.01-19.73-0.04-39.47-0.07-59.2c-0.37-3.04-0.38-3.04-2.83-1.79
		c-0.32,0.16-0.64,0.33-0.96,0.52c-10.82,6.33-21.63,12.67-32.45,19c-14.57,8.51-29.15,17.01-43.72,25.53
		c-7.6,4.44-15.13,8.99-22.77,13.37c-6.67,3.83-13.48,7.43-19.84,11.78c-0.07,1.69-0.19,3.38-0.19,5.07
		c-0.01,72.73-0.01,145.45-0.01,218.18c0,1.57-0.03,3.15-0.04,4.72c-0.44,0.18-0.92,0.3-1.33,0.54c-9.1,5.2-18.22,10.36-27.28,15.63
		c-14.16,8.24-28.28,16.56-42.42,24.85C170.53,497.07,169.72,497.58,168.68,497.16z"/>
	<path class="st2" d="M316.94,271.1c0,45.94,0.04,91.88-0.06,137.82c-0.01,3.02,0.79,4.71,3.51,6.25
		c14.6,8.26,29.06,16.77,43.57,25.2c0.37,0.3,0.7,0.66,1.1,0.9c23.88,13.93,47.77,27.86,71.67,41.76c0.75,0.43,1.47,1.26,2.75,0.88
		c0-1.27,0-2.46,0-3.65c0-25.53,0-51.06,0-76.59c0-1.09,0.02-2.18,0.02-3.27c0-0.83,0.35-1.38,1.2-1.54
		c18.37,10.72,36.75,21.45,55.12,32.17c5.12,2.99,10.2,6.02,15.37,8.92c1.54,0.86,2.22,1.81,2.22,3.66
		c-0.06,55.56-0.05,111.12-0.06,166.69c0,0.24-0.06,0.48-0.08,0.72c-1.4-0.04-2.52-0.81-3.65-1.49c-3.01-1.79-5.96-3.67-8.99-5.42
		c-8.89-5.13-17.82-10.18-26.71-15.31c-8.04-4.65-16.03-9.39-24.07-14.05c-16.61-9.64-33.25-19.21-49.84-28.88
		c-14.82-8.63-29.57-17.38-44.39-26.02c-11.57-6.75-23.24-13.31-34.74-20.16c-7.78-4.64-15.57-9.26-23.4-13.81
		c-12.53-7.28-25.03-14.59-37.61-21.78c-5.44-3.11-10.64-6.65-16.34-9.31c-0.01-1.57-0.04-3.14-0.04-4.72c0-62.54,0-125.08,0-187.63
		c0-10.65,0.02-21.29,0.04-31.94c1.45-0.22,2.53,0.64,3.67,1.29c10.97,6.3,21.94,12.6,32.91,18.91c10.54,6.07,21.05,12.2,31.63,18.2
		C313.35,269.84,314.74,271.49,316.94,271.1z"/>
	<path class="st3" d="M243.54,454.79c5.69,2.67,10.89,6.2,16.34,9.31c12.58,7.18,25.09,14.5,37.61,21.78
		c7.83,4.55,15.62,9.17,23.4,13.81c11.5,6.86,23.18,13.41,34.74,20.16c14.81,8.64,29.57,17.39,44.39,26.02
		c16.59,9.66,33.23,19.24,49.84,28.88c8.03,4.66,16.02,9.4,24.07,14.05c8.89,5.13,17.82,10.19,26.71,15.31
		c3.03,1.75,5.99,3.62,8.99,5.42c1.14,0.68,2.25,1.44,3.65,1.49c0.02,2.11-1.43,3.07-3.02,3.99c-13.27,7.7-26.53,15.42-39.79,23.15
		c-9.5,5.54-19.02,11.04-28.46,16.68c-2.38,1.42-4.26,1.35-6.67-0.06c-27.42-16.05-54.91-31.99-82.36-47.98
		c-34.35-20-68.68-40.03-103.03-60.04c-26.2-15.27-52.4-30.55-78.62-45.79c-1.55-0.9-2.84-1.79-2.65-3.81
		c1.03,0.42,1.85-0.09,2.7-0.59c14.13-8.29,28.25-16.61,42.42-24.85c9.06-5.27,18.18-10.43,27.28-15.63
		c0.41-0.24,0.89-0.36,1.33-0.54C242.96,455.56,243.23,455.15,243.54,454.79z"/>
	<path class="st3" d="M316.94,271.1c-2.19,0.39-3.59-1.26-5.2-2.18c-10.58-6.01-21.09-12.13-31.63-18.2
		c-10.96-6.31-21.94-12.61-32.91-18.91c-1.14-0.66-2.22-1.51-3.67-1.29c-0.54-0.9,0.11-2.16-0.88-2.92
		c6.36-4.35,13.17-7.95,19.84-11.78c7.63-4.38,15.17-8.93,22.77-13.37c14.57-8.52,29.15-17.01,43.72-25.53
		c10.82-6.32,21.63-12.67,32.45-19c0.31-0.18,0.63-0.35,0.96-0.52c2.45-1.25,2.46-1.24,2.83,1.8c-0.88,1.03-0.67,2.28-0.67,3.47
		c-0.01,25.05-0.01,50.1,0,75.15c0,1.19-0.24,2.45,0.7,3.45c1.56,0.27,2.69-0.73,3.87-1.41c9.38-5.43,18.69-10.96,28.06-16.41
		c12.27-7.14,24.58-14.21,36.85-21.34c1.56-0.91,3.02-1.98,4.53-2.98c0.38,0.54,0.71,0.29,1.03-0.07c3.65,1.62,6.96,3.84,10.41,5.82
		c19.03,10.95,38.05,21.92,57.1,32.84c1.96,1.12,3.77,2.67,6.2,2.8c0.67,1.99-0.27,3.04-1.97,4.01
		c-12.55,7.23-25.04,14.55-37.55,21.83c-10.43,6.07-20.94,12.03-31.26,18.28c-2.6,1.58-4.48,1.36-6.92-0.06
		c-13.76-8.03-27.58-15.95-41.38-23.9c-8.99-5.18-18.04-10.26-26.94-15.6c-2.09-1.25-3.56-1.12-5.52,0.03
		c-13.74,8.08-27.53,16.07-41.31,24.09C319.29,269.88,318.11,270.47,316.94,271.1z"/>
	<path class="st4" d="M513.29,240.52c-2.43-0.13-4.24-1.68-6.2-2.8c-19.05-10.91-38.06-21.89-57.1-32.84
		c-3.44-1.98-6.76-4.2-10.41-5.82c-0.03-0.6-0.09-1.21-0.09-1.81c0-56,0.01-112,0.02-168c0.19-0.23,0.38-0.47,0.56-0.7l0.11-0.16
		l-0.15-0.12c23.78,13.63,47.56,27.28,71.36,40.87c1.43,0.82,2.24,1.73,1.98,3.41c-0.05,0.35-0.01,0.72-0.01,1.09
		c0,54.78,0,109.57,0,164.35C513.37,238.83,513.32,239.68,513.29,240.52z"/>
	<path class="st5" d="M366.57,440.29c23.76-13.84,47.52-27.67,71.29-41.51c1.19,0.91,0.73,2.23,0.73,3.37
		c0.03,25.78,0.02,51.56,0.01,77.34c0,0.92,0.28,1.91-0.36,2.74c-1.02,0.38-1.66-0.35-2.34-0.74
		c-22.35-13.01-44.7-26.03-67.03-39.08C367.96,441.88,366.76,441.6,366.57,440.29z"/>
	<path class="st0" d="M513.18,385.36c-5.58-2.63-10.73-6.02-16.06-9.1c-17.99-10.39-35.94-20.87-53.9-31.31
		c-0.31-0.18-0.56-0.31-0.63-0.35c-0.93-0.5-1.77-0.87-2.48-1.16c-0.31,13.68-0.49,27.53-0.53,41.53c-0.01,4.2-0.01,8.38,0,12.55
		c-0.48-1.08-0.17-0.45-0.64-0.58c-0.08-0.02-0.18-0.1-0.2-0.17c-0.06-0.23-0.1-0.47-0.11-0.71c-0.02-0.36-0.04-0.73-0.02-1.09
		c0.04-0.66,0.04-20.77,0.02-51.23c0.01-0.26,0.02-0.52,0.03-0.78c-0.23,0.13-0.46,0.26-0.7,0.39c-5.56,3.17-10.01,5.67-12.7,7.22
		c-19.16,11.03-38.32,22.06-57.47,33.1c-0.83,0.48-1.61,1.06-2.41,1.59c-0.02-0.8-0.03-1.61-0.05-2.41c1.06,0.31,1.87-0.29,2.7-0.77
		c22.08-12.7,35.07-19.67,67.77-39.02c0.85-0.5,1.52-0.89,1.77-1.04c-2.86-1.81-5.77-3.61-8.73-5.42c-2.87-1.75-5.71-3.46-8.53-5.13
		c0.17-0.29,0.34-0.58,0.52-0.87c5.76,3.28,11.52,6.57,17.73,10.11c0-6.18,0-11.81,0-17.54c0.31,0.21,0.62,0.42,0.93,0.63
		c-0.03,4.05,0.01,8.2,0.13,12.44c0.04,1.48,0.09,2.94,0.15,4.39c1.36-0.71,2.72-1.44,4.08-2.18c4.53-2.45,8.93-4.93,13.18-7.43
		c0.59,0.06,1.18,0.12,1.77,0.17c-6.22,3.63-11.97,6.99-18.06,10.55c1.07,0.75,1.84,1.39,2.71,1.89
		c22.12,12.86,44.25,25.71,66.39,38.53c1.05,0.61,2.07,1.88,3.52,0.72C513.3,383.72,513.24,384.54,513.18,385.36z"/>
	<path class="st6" d="M366.57,440.29c0.2,1.31,1.4,1.59,2.29,2.11c22.33,13.05,44.67,26.07,67.03,39.08
		c0.68,0.4,1.33,1.13,2.34,0.74c0.64-0.83,0.36-1.83,0.36-2.74c0.02-25.78,0.02-51.56-0.01-77.34c0-1.14,0.46-2.46-0.73-3.37
		c0.98-0.84,1.94-0.96,2.86,0.09c-0.85,0.16-1.2,0.71-1.2,1.54c0,1.09-0.02,2.18-0.02,3.27c0,25.53,0,51.06,0,76.59
		c0,1.19,0,2.38,0,3.65c-1.28,0.37-2-0.45-2.75-0.88c-23.9-13.9-47.79-27.83-71.67-41.76c-0.41-0.24-0.74-0.6-1.1-0.9
		C364.83,440.34,365.7,440.32,366.57,440.29z"/>
	<path class="st6" d="M439.51,29.26c-0.01,56-0.01,112-0.02,168c0,0.6,0.06,1.21,0.09,1.81c-0.32,0.36-0.65,0.61-1.03,0.07
		c0.02-6.66,0.05-13.31,0.05-19.97c0-48.78,0.01-97.55-0.03-146.33c0-1.49,0.63-3.15-0.71-4.45c0.68-0.69,1.4-0.91,2.16-0.12
		c0,0,0.15,0.12,0.15,0.12s-0.11,0.16-0.11,0.16C439.52,28.5,439.42,28.8,439.51,29.26z"/>
	<path class="st1" d="M513.18,385.36c0.06-0.82,0.12-1.63,0.18-2.45c0-6.34,0-12.69,0-19.03c0.25-0.01,0.5-0.03,0.75-0.04
		c0.3,2.2,0.09,4.46,0.13,6.68c0.04,2.4,0.01,4.81,0.01,7.21c0,2.4,0.01,4.81,0.01,7.21c-0.03,0.81-0.06,1.63-0.1,2.44
		c0,17.24,0,34.48,0,51.72c-0.25,0.01-0.51,0.01-0.76,0.02c-0.27-5.84-0.08-11.69-0.12-17.53c-0.03-6.04,0.01-12.08-0.01-18.11
		C513.26,397.43,513.22,391.39,513.18,385.36z"/>
	<path class="st5" d="M365.33,382.87c0.02,0.8,0.03,1.61,0.05,2.41c0,16.91,0.01,33.82,0,50.72c0,0.96-0.12,1.92-0.19,2.88
		c-0.19-0.02-0.38-0.02-0.57,0c-0.06-0.36-0.17-0.71-0.17-1.07c0.01-17.05,0.03-34.1,0.05-51.15c-0.03-0.81-0.05-1.62-0.08-2.44
		c0.04-6.96,0.08-13.92,0.12-20.88c0.24,0,0.49,0,0.73,0C365.29,369.86,365.31,376.37,365.33,382.87z"/>
	<path class="st0" d="M364.41,383.33c0.03,0.81,0.05,1.62,0.08,2.44c-1.39-0.95-2.28,0.32-3.24,0.85c-4.34,2.38-8.6,4.88-12.9,7.32
		c-0.67,0.38-1.24,1.25-2.66,0.36C351.88,390.23,358.24,386.94,364.41,383.33z"/>
	<path class="st0" d="M514.17,385.81c0.03-0.81,0.06-1.63,0.1-2.44c6.2,3.53,12.4,7.07,18.73,10.68c-1.3,1.24-1.92,0.31-2.56-0.06
		c-4.6-2.63-9.17-5.32-13.78-7.94C515.92,385.64,515.11,384.57,514.17,385.81z"/>
	<path class="st0" d="M364.62,438.88c0.19-0.02,0.38-0.02,0.57,0c-0.09,0.17-0.19,0.34-0.28,0.51
		C364.81,439.23,364.71,439.05,364.62,438.88z"/>
	<path class="st7" d="M242.65,227.59c0.99,0.76,0.34,2.02,0.88,2.92c-0.01,10.65-0.03,21.29-0.04,31.94c0,62.54,0,125.08,0,187.63
		c0,1.57,0.03,3.14,0.04,4.72c-0.31,0.35-0.57,0.77-1.13,0.76c0.01-1.57,0.04-3.15,0.04-4.72c0-72.73,0-145.45,0.01-218.18
		C242.46,230.97,242.59,229.28,242.65,227.59z"/>
	<path class="st0" d="M365.25,241.28c-0.94-1.01-0.7-2.27-0.7-3.45c-0.01-25.05-0.01-50.1,0-75.15c0-1.19-0.21-2.44,0.67-3.47
		c0.02,19.73,0.05,39.47,0.07,59.2C365.29,226.03,365.26,233.65,365.25,241.28z"/>
</g>
<path class="st3" d="M420.12,107.71c-0.06-0.3,0.01-0.5,0.37-0.46C420.37,107.4,420.24,107.55,420.12,107.71z"/>
</svg>
