<svg width="50" height="52" viewBox="0 0 50 52" fill="none" xmlns="http://www.w3.org/2000/svg">
<path fill-rule="evenodd" clip-rule="evenodd" d="M37.4858 25.8854C36.4747 26.1613 35.4312 26.4129 34.3553 26.6238V27.4028V29.8047V32.9775V36.1503V40.1833V47.9732V51.4625L37.4858 49.3121L40.6164 47.1618L43.747 45.0195L46.8775 42.8773V39.3799V32.2148V28.758V25.2525C45.8987 25.8367 44.8552 26.3804 43.747 26.8835C42.7439 27.3379 41.7004 27.7518 40.6164 28.1331V31.3952C41.6923 31.0382 42.7358 30.6568 43.747 30.2348V33.5699V41.5303L40.6083 43.6725L37.4778 45.8147V35.5012V32.2959V29.0907V27.3947V25.8854H37.4858ZM34.3553 17.2596C35.4797 17.0324 36.5232 16.7809 37.4858 16.4888V15.0931V11.19V7.70071V6.97851V3.91933C38.6103 4.26014 39.6619 4.64964 40.6164 5.07159C40.762 5.1284 40.8914 5.19331 41.029 5.25823C42.0482 5.73699 42.9623 6.26443 43.747 6.82434C43.7631 6.83245 43.7712 6.84057 43.7874 6.85679C45.745 8.27684 46.8694 9.94844 46.8694 11.7336C46.8694 13.527 45.7288 15.2067 43.7389 16.6429C42.8491 17.2759 41.7974 17.8682 40.6083 18.3957C39.6538 18.8176 38.6022 19.199 37.4778 19.5479C36.4909 19.8482 35.4473 20.1079 34.3472 20.3432C33.3441 20.546 32.3006 20.7246 31.2166 20.8625C29.2428 21.1222 27.1558 21.252 24.9879 21.252C22.8199 21.252 20.7329 21.1222 18.7591 20.8625V23.9947C20.7491 24.2544 22.8361 24.3923 24.9879 24.3923C27.1315 24.3923 29.2186 24.2544 31.2166 23.9947C32.2925 23.8568 33.336 23.6783 34.3472 23.4754C35.4312 23.2482 36.4747 22.9966 37.4778 22.6964C38.5779 22.3799 39.6214 22.0148 40.6083 21.6172C41.7408 21.1627 42.7843 20.6596 43.7389 20.1079C44.9361 19.4181 45.9877 18.6716 46.8694 17.8682C48.8675 16.0506 50 13.9651 50 11.7336C50 9.50214 48.8675 7.4167 46.8694 5.59904C46.6915 5.43675 46.5054 5.27446 46.3194 5.12028C45.5671 4.49546 44.7177 3.91933 43.7712 3.37565L43.747 3.39188V3.35942C42.7924 2.80763 41.7408 2.30453 40.6164 1.85012C40.0987 1.63914 39.5486 1.44439 38.9985 1.24964C38.5051 1.07924 38.0036 0.925059 37.4939 0.770882C36.4828 0.478758 35.4393 0.219093 34.3553 0V1.24964V3.13222V6.20763V7.69259V9.83483V13.3241V14.1112V15.8558V17.2596ZM9.3836 21.609C8.25918 21.1546 7.20757 20.6515 6.25303 20.0997C5.05582 19.41 4.00421 18.6635 3.12247 17.8601C1.1325 16.0506 0 13.957 0 11.7336C0 9.50214 1.1325 7.4167 3.13056 5.59904C3.30853 5.43675 3.49458 5.27446 3.68872 5.12028C4.44103 4.49546 5.29041 3.91933 6.23686 3.37565L6.26112 3.39188V3.35942C7.21566 2.80763 8.26727 2.30453 9.39168 1.85012C9.91749 1.63914 10.4595 1.44439 11.0095 1.24964C11.4949 1.07924 12.0045 0.925059 12.5142 0.770882C13.5172 0.478758 14.5608 0.219093 15.6447 0V1.24964V3.13222V6.20763V7.69259V9.83483V13.3241V13.7623V26.6238C14.5688 26.4129 13.5253 26.1694 12.5142 25.8854V14.736V11.1818V7.69259V6.97851V3.91933C11.3897 4.26014 10.3462 4.64964 9.3836 5.07159C9.24608 5.1284 9.10856 5.19331 8.97104 5.25823C7.95179 5.73699 7.0377 6.26443 6.26112 6.82434C6.24494 6.83245 6.22877 6.84057 6.22068 6.85679C4.25498 8.27684 3.13056 9.94844 3.13056 11.7336C3.13056 13.527 4.27115 15.2067 6.26112 16.6429C7.14286 17.2759 8.19447 17.8682 9.39168 18.3957V21.609H9.3836ZM15.6447 36.1503C14.585 35.9637 13.5415 35.7527 12.5142 35.5093V38.6577C12.5142 44.8004 12.5142 39.6801 12.5142 45.8229L9.3836 43.6725L6.25303 41.5303V33.5699V30.2348C7.2642 30.6487 8.30772 31.0382 9.3836 31.3952V28.1331C10.3948 28.4902 11.4383 28.8067 12.5142 29.0907C13.5334 29.3584 14.5769 29.5856 15.6447 29.7966C16.664 29.9833 17.7075 30.1537 18.7753 30.2835C20.7895 30.5269 22.8685 30.6568 25.004 30.6568C27.1315 30.6568 29.2186 30.5269 31.2328 30.2835V33.4319C29.2105 33.6673 27.1315 33.7971 25.004 33.7971C22.8766 33.7971 20.7976 33.6673 18.7753 33.4319C17.7156 33.3102 16.6721 33.156 15.6447 32.9694C14.5769 32.7665 13.5334 32.5556 12.5142 32.2959C11.4464 32.0281 10.4028 31.7279 9.3836 31.3952V28.1331C8.29963 27.7518 7.25611 27.3379 6.25303 26.8835C5.15289 26.3804 4.10937 25.8367 3.12247 25.2525V28.758V32.2148V39.388V42.8854L6.25303 45.0276L9.3836 47.1699L12.5142 49.3202L15.6447 51.4706V47.9813C15.6447 41.1245 15.6447 45.5226 15.6447 38.6658V36.1503Z" fill="white"/>
</svg>
